REM DIRINDEX 1\2,1\3,1\4,1\6,1\5\7,1\5\8
REM DIRNAME folder01,folder02,folder03,folder04,folder05,folder06,folder07,folder08
TITLE ""
FILE "DB4500_5th_1A_26.mp3" MP3
  TRACK 01 AUDIO
    TITLE "2:cjc114_0794"
    INDEX 01 00:00:00
  TRACK 02 AUDIO
    TITLE "0:"
    INDEX 01 00:01:07
  TRACK 03 AUDIO
    TITLE "3:cjc114_0795"
    INDEX 01 00:01:32
  TRACK 04 AUDIO
    TITLE "0:"
    INDEX 01 00:02:42
  TRACK 05 AUDIO
    TITLE "4:cjc114_0796"
    INDEX 01 00:02:67
  TRACK 06 AUDIO
    TITLE "0:"
    INDEX 01 00:06:18
  TRACK 07 AUDIO
    TITLE "2:cjc114_0797"
    INDEX 01 00:06:67
  TRACK 08 AUDIO
    TITLE "0:"
    INDEX 01 00:07:68
  TRACK 09 AUDIO
    TITLE "3:cjc114_0798"
    INDEX 01 00:08:15
  TRACK 10 AUDIO
    TITLE "0:"
    INDEX 01 00:09:40
  TRACK 11 AUDIO
    TITLE "4:cjc114_0799"
    INDEX 01 00:09:61
  TRACK 12 AUDIO
    TITLE "0:"
    INDEX 01 00:13:63
  TRACK 13 AUDIO
    TITLE "2:cjc114_0800"
    INDEX 01 00:14:37
  TRACK 14 AUDIO
    TITLE "0:"
    INDEX 01 00:17:08
  TRACK 15 AUDIO
    TITLE "3:cjc114_0801"
    INDEX 01 00:17:31
  TRACK 16 AUDIO
    TITLE "0:"
    INDEX 01 00:18:64
  TRACK 17 AUDIO
    TITLE "4:cjc114_0802"
    INDEX 01 00:19:15
  TRACK 18 AUDIO
    TITLE "0:"
    INDEX 01 00:23:03
  TRACK 19 AUDIO
    TITLE "2:cjc114_0803"
    INDEX 01 00:23:44
  TRACK 20 AUDIO
    TITLE "0:"
    INDEX 01 00:24:45
  TRACK 21 AUDIO
    TITLE "3:cjc114_0804"
    INDEX 01 00:24:69
  TRACK 22 AUDIO
    TITLE "0:"
    INDEX 01 00:25:70
  TRACK 23 AUDIO
    TITLE "4:cjc114_0805"
    INDEX 01 00:26:18
  TRACK 24 AUDIO
    TITLE "0:"
    INDEX 01 00:30:05
  TRACK 25 AUDIO
    TITLE "2:cjc114_0806"
    INDEX 01 00:30:50
  TRACK 26 AUDIO
    TITLE "0:"
    INDEX 01 00:31:59
  TRACK 27 AUDIO
    TITLE "3:cjc114_0807"
    INDEX 01 00:32:09
  TRACK 28 AUDIO
    TITLE "0:"
    INDEX 01 00:33:15
  TRACK 29 AUDIO
    TITLE "4:cjc114_0808"
    INDEX 01 00:33:36
  TRACK 30 AUDIO
    TITLE "0:"
    INDEX 01 00:37:42
  TRACK 31 AUDIO
    TITLE "2:cjc114_0809"
    INDEX 01 00:38:08
  TRACK 32 AUDIO
    TITLE "0:"
    INDEX 01 00:39:11
  TRACK 33 AUDIO
    TITLE "3:cjc114_0810"
    INDEX 01 00:39:33
  TRACK 34 AUDIO
    TITLE "0:"
    INDEX 01 00:40:56
  TRACK 35 AUDIO
    TITLE "4:cjc114_0811"
    INDEX 01 00:41:06
  TRACK 36 AUDIO
    TITLE "0:"
    INDEX 01 00:44:18
  TRACK 37 AUDIO
    TITLE "2:cjc114_0812"
    INDEX 01 00:44:63
  TRACK 38 AUDIO
    TITLE "0:"
    INDEX 01 00:45:67
  TRACK 39 AUDIO
    TITLE "3:cjc114_0813"
    INDEX 01 00:46:13
  TRACK 40 AUDIO
    TITLE "0:"
    INDEX 01 00:47:23
  TRACK 41 AUDIO
    TITLE "4:cjc114_0814"
    INDEX 01 00:47:44
  TRACK 42 AUDIO
    TITLE "0:"
    INDEX 01 00:50:74
  TRACK 43 AUDIO
    TITLE "2:cjc114_0815"
    INDEX 01 00:51:44
  TRACK 44 AUDIO
    TITLE "0:"
    INDEX 01 00:52:47
  TRACK 45 AUDIO
    TITLE "3:cjc114_0816"
    INDEX 01 00:52:73
  TRACK 46 AUDIO
    TITLE "0:"
    INDEX 01 00:53:74
  TRACK 47 AUDIO
    TITLE "4:cjc114_0817"
    INDEX 01 00:54:23
  TRACK 48 AUDIO
    TITLE "0:"
    INDEX 01 00:57:23
  TRACK 49 AUDIO
    TITLE "2:cjc114_0818"
    INDEX 01 00:57:66
  TRACK 50 AUDIO
    TITLE "0:"
    INDEX 01 00:59:02
  TRACK 51 AUDIO
    TITLE "3:cjc114_0819"
    INDEX 01 00:59:28
  TRACK 52 AUDIO
    TITLE "0:"
    INDEX 01 01:00:60
  TRACK 53 AUDIO
    TITLE "4:cjc114_0820"
    INDEX 01 01:01:05
  TRACK 54 AUDIO
    TITLE "0:"
    INDEX 01 01:05:09
  TRACK 55 AUDIO
    TITLE "2:cjc114_0821"
    INDEX 01 01:05:54
  TRACK 56 AUDIO
    TITLE "0:"
    INDEX 01 01:06:51
  TRACK 57 AUDIO
    TITLE "3:cjc114_0822"
    INDEX 01 01:07:02
  TRACK 58 AUDIO
    TITLE "0:"
    INDEX 01 01:07:72
  TRACK 59 AUDIO
    TITLE "4:cjc114_0823"
    INDEX 01 01:08:23
  TRACK 60 AUDIO
    TITLE "0:"
    INDEX 01 01:12:32
  TRACK 61 AUDIO
    TITLE "2:cjc114_0824"
    INDEX 01 01:13:02
  TRACK 62 AUDIO
    TITLE "0:"
    INDEX 01 01:14:00
  TRACK 63 AUDIO
    TITLE "3:cjc114_0825"
    INDEX 01 01:14:23
  TRACK 64 AUDIO
    TITLE "0:"
    INDEX 01 01:15:54
  TRACK 65 AUDIO
    TITLE "4:cjc114_0826"
    INDEX 01 01:16:05
  TRACK 66 AUDIO
    TITLE "0:"
    INDEX 01 01:19:21
